<svg viewBox="0 0 772 180" xmlns="http://www.w3.org/2000/svg"><path fill-rule="evenodd" clip-rule="evenodd" d="M629.2 171.8v.9c0 2.8-2.1 4.4-5.4 4.4h-33.4c-3.7 0-6.1-2.3-6.1-5.8v-2.1c-7 6.5-17 10.3-28.5 10.3-28.3 0-55.1-20.1-55.1-58.4 0-34.8 25.9-58.4 55.3-58.4 9.8 0 17.7 2.3 24.1 6.5V38.1c0-6.178-3.912-9.328-7.341-12.09-2.676-2.155-5.059-4.073-5.059-7.01v-.7c0-2.6 2.1-5.1 5.4-6.1l36.4-11c6.8-2.1 10.3-.7 10.3 5.6v144.8c0 6.15 2.993 9.722 5.601 12.834 2.014 2.404 3.799 4.534 3.799 7.366Zm-49.1-23.3v-45.1c0-14.9-10.3-29.2-21-29.2-11.4 0-17.7 10-18.4 28.7-.7 19.6 7 64.4 24.5 65.1 7.9.3 14.9-6.9 14.9-19.5Zm-90 24.5v-.9c0-3.086-1.586-5.349-3.375-7.9-2.152-3.069-4.597-6.557-4.925-12.4l-3-40.4c-2.8-37.2-24.3-48.6-44.6-48.6-15.4 0-27.1 6.3-33.4 17.5v-11c0-4.7-3.1-8.6-8.9-5.6l-32.7 16.1c-3.3 1.6-5.6 3-5.6 5.8v.7c0 2.978 2.378 4.92 5.052 7.104C362.083 96.206 366 99.405 366 105.7v46c0 5.954-3.189 9.462-6.018 12.574-2.255 2.48-4.282 4.71-4.282 7.726v.9c0 2.8 2.1 4.4 5.6 4.4h50.4c3.5 0 5.6-1.6 5.6-4.4v-.9c0-3.016-2.027-5.246-4.282-7.726-2.829-3.112-6.018-6.62-6.018-12.574v-50.9c0-13.5 4.9-22.6 15.2-22.6 10.5 0 14.9 8.7 16.1 31.8l2.3 41.8c.396 6.06-2.351 9.586-4.807 12.74-1.882 2.415-3.593 4.611-3.593 7.56v.9c0 2.8 2.1 4.4 5.6 4.4h46.7c3.3 0 5.6-1.6 5.6-4.4Zm-146.4-2.1c0 6.1-13.5 7.7-26.4 7.7-14 0-20.8-2.8-22.6-11.2-4.9 6.8-14.2 12.1-29.7 12.1-25 0-44.1-11.4-44.1-35.5 0-23.6 19.8-35.7 42-35.7 9.8 0 17.7 2.3 23.6 5.8v-.7c-2.8-27.6-4.4-39.5-16.6-39.5-7.535 0-10.12 6.856-12.87 14.15-3.126 8.292-6.465 17.15-17.53 17.15-9.8 0-16.3-6.1-16.3-15.2 0-19.1 22.9-27.3 46.7-27.3 31.3 0 53 18.2 56.7 47.2l5.1 41.8c1.331 10.042 5.443 12.582 8.484 14.461 1.987 1.226 3.516 2.171 3.516 4.739ZM290 150.8l-.9-10.7c-1.6-14-7.7-19.4-14.5-19.4-7 0-11.9 6.3-11.9 15.9 0 16.6 5.6 31.1 15.2 31.1 7.7-.1 12.1-8.9 12.1-16.9Zm-81.7 21.3v.9c0 2.8-2.3 4.4-5.6 4.4H156c-3.3 0-5.6-1.6-5.6-4.4v-.9c0-2.782 1.667-4.942 3.52-7.34 2.475-3.206 5.28-6.84 4.88-12.96l-2.3-41.3c-1.2-23.6-6.1-32.2-16.1-32.2-9.6 0-14.5 9.3-14.5 22.2.5 3.3.7 6.3.7 9.8v41.6c0 6.013 2.653 9.626 4.977 12.791 1.811 2.467 3.423 4.662 3.423 7.509v.9c0 2.8-2.3 4.4-5.6 4.4H83c-3.5 0-5.6-1.6-5.6-4.4v-.9c0-2.847 1.573-5.042 3.341-7.509 2.27-3.165 4.859-6.778 4.859-12.791v-44.4c0-19.8-6.1-29.2-15.9-29.2-10.7 0-15.6 9.6-15.6 22.2v51.4c0 6.013 3.253 9.626 6.103 12.791 2.22 2.467 4.197 4.662 4.197 7.509v.9c0 2.8-2.1 4.4-5.6 4.4H8.4c-3.5 0-5.6-1.6-5.6-4.4v-.9c0-2.847 1.976-5.042 4.197-7.509 2.85-3.165 6.103-6.778 6.103-12.791v-46c0-6.158-3.886-9.37-7.308-12.198C3.102 91.479.7 89.493.7 86.5v-.7C.7 83 3 81.6 6.3 80l35-16.1c5.8-2.8 8.9.9 8.9 5.6v8.4C57 68.6 67.9 63 81.3 63c16.1 0 30.1 6.5 38.3 19.1C125.9 70 138.7 63 154.2 63c20.1 0 40.2 11.2 43 49l3 39.9c.221 5.851 2.666 9.387 4.813 12.491 1.742 2.518 3.287 4.752 3.287 7.709Zm539.1 6.5c15 0 24.1-1.4 24.1-7.7 0-3.989-1.744-4.749-3.769-5.632-2.847-1.24-6.248-2.722-6.131-13.768V68.6c0-4.2-3.5-5.6-10.3-4.7l-34.8 4.7c-3.3.5-5.4 2.8-5.4 5.4v.9c0 2.44 1.646 4.349 3.553 6.56 2.626 3.047 5.747 6.667 5.747 13.04v46.2c0 14.3-6.8 23.4-15.4 23.4-10.2 0-15.1-7.3-14.9-26.4l.7-69.1c0-4.2-4.2-5.6-11-4.7L645 68.6c-3.3.5-5.4 2.8-5.4 5.4v1c0 2.44 1.646 4.349 3.553 6.56 2.626 3.047 5.747 6.667 5.747 13.04v39c0 29.9 20.1 46 43.7 46 15.9 0 26.8-5.2 32.9-14.5 1.1 10 7.4 13.5 21.9 13.5ZM660.3 45.7l-8.2-8.2c-4.3-4.3-4.3-11.2 0-15.5l8.2-8.2c4.3-4.3 11.2-4.3 15.5 0L684 22c4.3 4.3 4.3 11.2 0 15.5l-8.2 8.2c-4.2 4.3-11.2 4.3-15.5 0Zm61-8.2 8.2 8.2c4.3 4.3 11.3 4.3 15.5 0l8.2-8.2c4.3-4.3 4.3-11.2 0-15.5l-8.2-8.2c-4.3-4.3-11.2-4.3-15.5 0l-8.2 8.2c-4.3 4.3-4.3 11.2 0 15.5Z"/></svg>